<?xml version="1.0" standalone="no"?>
<!DOCTYPE svg PUBLIC "-//W3C//DTD SVG 20010904//EN"
 "http://www.w3.org/TR/2001/REC-SVG-20010904/DTD/svg10.dtd">
<svg version="1.0" xmlns="http://www.w3.org/2000/svg"
 width="500.000000pt" height="500.000000pt" viewBox="0 0 500.000000 500.000000"
 preserveAspectRatio="xMidYMid meet">

<g transform="translate(0.000000,500.000000) scale(0.100000,-0.100000)"
fill="#000000" stroke="none">
<path d="M2240 4988 c-30 -5 -98 -16 -150 -24 -175 -28 -355 -77 -495 -134
-16 -7 -39 -16 -50 -20 -56 -21 -261 -125 -341 -173 -333 -200 -646 -514 -846
-847 -41 -69 -135 -255 -171 -340 -66 -156 -133 -401 -156 -570 -7 -47 -16
-107 -22 -133 -12 -63 -12 -431 0 -494 6 -26 15 -86 22 -133 18 -136 59 -300
112 -450 166 -475 475 -889 891 -1194 130 -96 387 -239 511 -286 11 -4 34 -13
50 -20 142 -58 321 -106 500 -135 55 -8 125 -20 156 -25 72 -13 426 -13 498 0
31 5 101 17 156 25 179 29 358 77 500 135 17 7 39 16 50 20 56 21 261 125 341
173 333 200 646 514 846 847 40 67 129 244 172 341 61 139 133 402 155 569 7
47 16 107 22 133 12 63 12 431 0 494 -6 26 -15 86 -22 133 -15 111 -52 272
-95 405 -62 197 -205 480 -328 650 -266 368 -569 626 -956 812 -63 31 -124 59
-135 63 -11 4 -33 13 -50 20 -34 14 -155 56 -200 69 -97 30 -242 58 -453 90
-85 13 -432 12 -512 -1z m413 -1288 c168 -16 301 -52 430 -115 108 -53 134
-69 219 -136 163 -128 284 -299 356 -501 43 -121 58 -198 40 -209 -16 -11
-619 -12 -633 -1 -5 4 -26 39 -44 77 -46 92 -152 199 -241 243 -96 47 -215 67
-310 52 -264 -40 -433 -207 -485 -479 -18 -94 -18 -135 -1 -231 19 -99 28
-126 66 -198 97 -180 275 -282 490 -282 243 0 435 147 514 393 5 16 30 17 330
17 191 0 327 -4 331 -9 8 -14 -28 -169 -56 -238 -29 -74 -47 -111 -100 -211
-32 -60 -156 -209 -215 -258 -175 -145 -347 -225 -582 -273 -68 -14 -388 -14
-450 -1 -26 6 -69 15 -97 21 -132 28 -328 118 -440 202 -102 76 -202 180 -271
282 -58 87 -134 239 -134 269 0 8 -4 17 -9 20 -5 3 -11 18 -13 33 -3 16 -13
64 -24 108 -22 98 -25 369 -6 455 79 342 216 560 472 747 89 65 264 150 360
175 93 24 181 40 254 47 119 12 131 12 249 1z"/>
</g>
</svg>
